<!-- FoodZilla_1_ -->
<svg xmlns="http://www.w3.org/2000/svg" width="294" height="58">
  <g transform="translate(0.001 0.001)">
    <path d="M 3.579 57.059 C 4.947 44.324 8.362 29.947 9.245 18.129 C 6.145 18.928 2.19 21.294 0.207 23.553 C 0.207 23.553 0.177 23.538 0.112 23.399 C -0.432 22.269 1.049 17.44 3.653 14.033 C 9.948 6.875 19.598 5.647 26.667 4.77 C 49.252 1.899 70.36 13.857 87.535 16.673 C 99.209 18.206 107.223 17.878 116.48 11.578 C 119.477 9.522 124.852 4.427 127.02 1.587 C 127.752 0.628 128.424 -0.081 128.512 0.007 C 124.657 6.309 115.096 15.512 109.091 18.184 C 100.638 21.316 92.749 21.428 83.494 19.659 C 65.227 16.022 43.198 9.645 21.688 15.671 C 21.53 15.815 21.17 17.618 20.89 19.679 C 20.66 21.391 20.422 23.103 20.177 24.813 L 19.973 26.197 L 25.395 25.936 L 30.816 25.674 L 30.816 26.764 C 30.816 29.099 29.398 32.572 27.743 34.299 L 26.149 35.96 L 22.349 35.765 C 20.26 35.659 18.551 35.677 18.551 35.806 C 18.551 35.935 17.827 40.171 16.946 45.223 C 15.396 54.108 15.308 54.438 14.255 55.38 C 12.218 56.571 4.525 59.145 3.578 57.059 Z M 44.877 56.735 C 39.669 55.498 35.221 51.204 33.899 46.131 C 32.823 42.008 33.419 37.09 35.407 33.691 C 37 30.968 40.083 28.033 42.753 26.698 C 50.834 22.661 59.551 25.612 63.419 33.691 C 64.446 35.833 64.54 36.341 64.534 39.636 C 64.529 42.468 64.356 43.698 63.723 45.387 C 63.281 46.569 62.919 47.571 62.919 47.613 C 62.919 47.859 65.299 46.946 66.353 46.297 C 68.308 45.089 69.053 43.781 69.053 41.546 C 69.053 33.676 75.368 26.412 83.382 25.062 C 89.842 23.974 96.13 27.42 99.132 33.691 C 100.158 35.833 100.253 36.341 100.248 39.636 C 100.242 42.468 100.069 43.698 99.436 45.387 C 98.995 46.569 98.632 47.571 98.632 47.613 C 98.632 47.656 99.126 47.549 99.727 47.378 C 102.369 46.621 105.126 43.983 105.126 42.213 C 105.126 40.106 106.297 35.498 107.446 33.077 C 111.276 25.026 119.267 22.418 124.661 27.461 C 125.544 28.286 125.632 28.305 125.81 27.692 C 125.917 27.325 126.102 24.19 126.223 20.722 C 126.508 12.563 126.616 11.916 127.944 10.404 C 129.756 8.344 131.53 7.642 135.376 7.462 L 138.753 7.304 L 138.535 8.7 C 137.482 15.48 134.315 43.613 134.446 45.018 C 134.655 47.246 135.871 48.462 137.889 48.462 C 140.397 48.462 142.565 46.245 145.638 40.541 C 146.634 38.692 146.672 38.667 147.983 38.898 C 150.114 39.275 150.578 39.473 150.578 40.002 C 150.578 41.037 147.896 46.592 146.04 49.397 C 143.881 52.665 141.808 54.544 138.893 55.875 C 133.801 58.204 128.718 56.918 126.066 52.635 L 125.313 51.415 L 123.243 53.483 C 118.651 58.068 112.756 58.272 108.682 53.987 C 107.959 53.226 107.086 52.037 106.743 51.344 C 106.398 50.65 106.061 50.021 105.993 49.944 C 105.926 49.868 105.266 50.338 104.526 50.986 C 103.786 51.635 102.317 52.548 101.262 53.013 C 99.319 53.871 95.103 54.702 93.537 54.536 C 93.065 54.487 91.788 54.86 90.696 55.365 C 86.363 57.373 82.471 57.565 78.25 55.978 C 76.545 55.336 75.487 54.566 73.256 52.342 L 70.427 49.52 L 68.972 50.832 C 68.173 51.554 66.644 52.53 65.576 53.003 C 63.61 53.87 59.4 54.704 57.824 54.537 C 57.353 54.487 56.156 54.827 55.165 55.293 C 51.578 56.977 48.01 57.478 44.875 56.735 Z M 49.008 45.94 C 49.049 43.522 49.829 42.234 51.772 41.379 C 53.078 40.803 53.179 40.652 53.172 39.296 C 53.157 36.491 51.256 33.691 49.365 33.691 C 48.009 33.691 46.199 35.252 45.125 37.349 C 44.288 38.987 44.091 39.832 44.089 41.842 C 44.083 44.719 44.495 45.977 45.853 47.232 C 46.535 47.863 47.154 48.104 47.902 48.029 C 48.945 47.924 48.977 47.865 49.009 45.94 Z M 84.721 45.94 C 84.762 43.522 85.54 42.234 87.483 41.379 C 88.791 40.803 88.892 40.652 88.885 39.296 C 88.87 36.491 86.968 33.691 85.078 33.691 C 83.722 33.691 81.912 35.252 80.838 37.349 C 80 38.987 79.805 39.832 79.802 41.842 C 79.796 44.719 80.208 45.977 81.565 47.232 C 82.246 47.863 82.867 48.104 83.615 48.029 C 84.658 47.924 84.69 47.865 84.721 45.94 Z M 120.943 46.148 C 122.134 45.533 123.697 42.791 124.244 40.356 C 124.989 37.037 123.471 33.689 121.22 33.693 C 118.16 33.698 115.266 39.496 116.101 43.945 C 116.565 46.417 118.617 47.349 120.943 46.148 Z M 146.61 55.912 C 146.61 52.941 147.597 51.232 159.046 34.397 C 165.296 25.206 170.29 17.57 170.144 17.427 C 169.997 17.284 167.036 17.57 163.564 18.063 C 160.093 18.556 156.715 18.86 156.057 18.74 C 153.178 18.21 150.699 14.383 150.322 9.883 L 150.113 7.393 L 187.012 7.393 L 187.012 8.72 C 187.012 12.24 186.344 13.394 174.338 30.629 C 167.989 39.744 162.645 47.469 162.463 47.796 C 162.208 48.259 162.272 48.361 162.759 48.256 C 166.702 47.406 175.306 45.94 176.345 45.94 C 179.991 45.94 182.685 49.695 182.685 54.779 L 182.685 57.108 L 146.609 57.108 Z M 192.244 56.552 C 190.291 55.809 187.948 53.427 186.973 51.198 C 185.783 48.475 185.714 43.304 186.734 33.151 L 187.566 24.866 L 189.183 24.976 C 193.637 25.282 196.808 27.203 197.316 29.905 C 197.487 30.812 197.29 33.275 196.763 36.835 C 195.418 45.928 196.034 48.462 199.591 48.462 C 201.084 48.462 201.374 48.304 203.051 46.569 C 204.058 45.53 205.412 43.625 206.061 42.337 C 207.229 40.016 207.253 39.859 208.951 23.785 L 210.665 7.574 L 213.105 7.63 C 217.724 7.738 220.849 10.138 221.475 14.058 C 221.636 15.068 220.994 19.618 219.329 29.247 C 218.023 36.809 216.954 43.501 216.954 44.12 C 216.954 45.647 217.817 47.6 218.703 48.072 C 219.855 48.689 221.631 48.528 222.998 47.684 C 224.257 46.908 227.632 42.192 227.964 40.748 C 228.059 40.334 228.913 32.701 229.863 23.785 L 231.588 7.574 L 234.028 7.63 C 238.647 7.738 241.772 10.138 242.398 14.058 C 242.559 15.068 241.915 19.618 240.252 29.247 C 238.946 36.809 237.876 43.501 237.876 44.12 C 237.876 45.647 238.74 47.6 239.626 48.072 C 241.772 49.22 244.393 48.014 246.49 44.913 C 248.518 41.915 248.713 41.458 249.414 38.044 C 250.588 32.319 253.927 27.438 257.824 25.745 C 261.359 24.211 265.657 24.849 268.186 27.287 C 269.12 28.187 269.981 28.236 269.981 27.389 C 269.981 26.692 271.919 25.176 273.458 24.668 C 274.72 24.253 279.626 24.361 280.37 24.821 C 280.544 24.927 280.053 29.277 279.281 34.487 C 277.477 46.66 277.64 47.891 281.112 48.357 C 283.715 48.705 285.866 46.718 288.931 41.136 C 290.281 38.675 290.284 38.673 291.586 38.903 C 294.125 39.353 294.245 39.436 294.011 40.603 C 293.657 42.377 291.031 47.653 289.294 50.085 C 286.337 54.221 282.632 56.652 278.749 57 C 274.967 57.339 272.116 56.043 270.119 53.075 L 268.994 51.403 L 267.233 53.204 C 264.554 55.946 262.454 56.909 259.16 56.91 C 257.085 56.91 256.118 56.73 255.011 56.14 C 253.202 55.173 251.526 53.414 250.536 51.439 L 249.773 49.914 L 247.342 52.371 C 243.978 55.769 241.547 56.914 237.696 56.914 C 233.475 56.914 231.149 55.481 229.207 51.683 L 228.51 50.316 L 226.249 52.567 C 223.046 55.756 220.519 56.914 216.773 56.914 C 212.484 56.914 210.11 55.41 208.197 51.476 L 207.461 49.965 L 205.083 52.397 C 202.122 55.426 199.406 56.801 196.03 56.978 C 194.525 57.057 193.171 56.905 192.245 56.552 Z M 265.04 45.932 C 266.251 44.982 267.748 41.888 268.043 39.731 C 268.329 37.621 267.628 34.933 266.604 34.217 C 262.522 31.362 257.292 41.474 260.646 45.734 C 261.573 46.912 263.673 47.006 265.04 45.932 Z" fill="rgb(0,0,0)"></path>
    <path d="M 187.83 14.767 C 187.83 18.507 190.846 21.539 194.566 21.539 C 198.285 21.539 201.301 18.507 201.301 14.767 C 201.301 11.027 198.285 7.994 194.566 7.994 C 190.846 7.994 187.83 11.027 187.83 14.767 Z" fill="rgb(0,0,0)"></path>
  </g>
</svg>