<?xml version="1.0" standalone="no"?>
<!DOCTYPE svg PUBLIC "-//W3C//DTD SVG 20010904//EN"
 "http://www.w3.org/TR/2001/REC-SVG-20010904/DTD/svg10.dtd">
<svg version="1.0" xmlns="http://www.w3.org/2000/svg"
 width="1233.000000pt" height="389.000000pt" viewBox="0 0 1233.000000 389.000000"
 preserveAspectRatio="xMidYMid meet">

<g transform="translate(0.000000,389.000000) scale(0.100000,-0.100000)"
fill="#000000" stroke="none">
<path d="M5295 3106 c-63 -71 -219 -213 -310 -281 -83 -63 -283 -160 -388
-190 -116 -32 -223 -45 -387 -45 -310 0 -548 50 -1117 234 -393 127 -705 209
-923 240 -181 27 -420 38 -556 26 -159 -14 -418 -55 -511 -80 -212 -60 -396
-170 -491 -293 -71 -92 -163 -320 -138 -344 3 -4 23 9 44 29 46 44 128 96 207
130 99 43 100 43 97 -27 -5 -102 -40 -349 -107 -752 -55 -337 -78 -484 -100
-659 -8 -59 7 -68 103 -61 78 5 183 34 257 68 71 33 76 50 151 489 25 151 51
281 56 287 8 10 44 11 152 7 l142 -7 46 52 c74 82 128 210 128 304 0 32 -3 37
-17 33 -10 -2 -105 -8 -212 -11 l-193 -7 6 28 c3 16 12 83 21 149 9 66 21 146
27 177 12 67 2 62 207 103 191 38 321 49 571 49 364 -2 605 -32 1162 -149 628
-132 785 -153 1012 -135 356 29 542 112 811 362 129 120 330 338 312 338 -3 0
-31 -29 -62 -64z"/>
<path d="M5648 2969 c-118 -12 -192 -51 -249 -131 -29 -40 -37 -103 -49 -385
-8 -184 -15 -262 -24 -271 -11 -11 -23 -5 -67 33 -208 177 -509 58 -643 -254
-32 -76 -76 -240 -76 -285 0 -61 -21 -108 -71 -158 -50 -50 -136 -98 -176 -98
l-22 0 26 73 c34 95 44 313 19 398 -48 164 -200 320 -369 379 -215 76 -492
-15 -656 -215 -88 -106 -151 -272 -151 -396 0 -71 -12 -104 -53 -147 -42 -45
-175 -111 -190 -95 -3 2 6 37 21 76 24 66 26 85 26 233 l1 161 -38 75 c-160
315 -487 419 -802 255 -80 -42 -230 -192 -272 -272 -48 -92 -67 -174 -67 -300
0 -86 4 -125 21 -180 75 -239 289 -404 523 -404 100 -1 142 8 258 53 60 23
112 35 168 40 162 13 292 61 395 147 26 22 50 39 54 39 4 0 52 -43 107 -95
121 -115 159 -139 269 -166 125 -32 230 -24 374 29 72 26 136 43 185 47 160
14 280 57 378 134 28 23 56 41 61 41 5 0 23 -26 41 -57 41 -73 121 -152 185
-183 42 -21 64 -25 145 -25 85 0 101 3 154 29 35 17 92 60 136 103 43 40 82
73 87 73 5 0 24 -22 42 -50 71 -110 181 -166 311 -157 173 11 320 104 435 277
52 78 136 240 165 317 25 68 19 78 -58 94 -66 13 -54 24 -141 -126 -75 -128
-128 -187 -197 -221 -121 -59 -209 5 -206 151 2 104 101 1000 142 1285 11 74
20 136 20 138 0 4 -94 -1 -172 -9z m-3204 -1039 c42 -37 71 -98 81 -168 8 -62
-2 -79 -69 -112 -56 -27 -82 -75 -89 -164 -3 -41 -10 -72 -18 -78 -25 -16 -90
-1 -120 28 -50 48 -63 89 -63 199 -1 92 1 105 30 165 32 66 92 135 129 151 42
17 83 10 119 -21z m1380 0 c43 -38 73 -99 82 -168 6 -47 4 -56 -16 -77 -13
-14 -29 -25 -36 -25 -17 0 -72 -47 -86 -73 -6 -12 -14 -55 -18 -95 -5 -45 -13
-78 -21 -84 -25 -16 -90 -1 -120 28 -50 48 -63 89 -64 199 0 89 3 107 28 160
28 61 96 140 132 155 42 18 83 11 119 -20z m1401 -4 c60 -64 71 -182 26 -297
-32 -84 -75 -137 -128 -161 -59 -26 -102 -18 -142 27 -69 78 -47 269 45 389
42 55 76 75 128 76 31 0 45 -6 71 -34z"/>
<path d="M6280 2931 c0 -163 86 -334 189 -377 38 -16 27 -17 316 17 94 10 189
21 212 24 23 2 44 1 47 -4 6 -9 -166 -273 -515 -794 -354 -527 -389 -590 -389
-689 l0 -58 691 0 692 0 -6 98 c-8 146 -51 244 -128 298 -39 27 -49 29 -123
28 -65 -1 -305 -39 -505 -80 -29 -6 -33 -5 -28 9 3 9 88 134 189 279 550 793
680 988 727 1089 21 43 33 88 37 137 l7 72 -707 0 -706 0 0 -49z"/>
<path d="M8567 2514 c-85 -804 -90 -835 -174 -959 -93 -139 -162 -187 -247
-171 -112 21 -126 104 -80 476 30 250 28 274 -37 338 -48 49 -123 79 -227 92
-42 6 -77 9 -78 7 -1 -1 -14 -119 -28 -262 -59 -595 -45 -732 86 -871 66 -70
115 -95 195 -102 149 -12 268 41 408 179 50 49 93 89 97 89 4 0 23 -32 44 -70
66 -126 129 -173 256 -193 150 -23 273 23 416 158 49 47 94 85 99 85 4 0 28
-34 53 -76 77 -132 146 -169 310 -168 151 0 222 37 389 198 40 39 75 66 78 60
12 -34 79 -134 110 -165 19 -21 58 -50 87 -65 47 -27 59 -29 156 -28 94 0 111
3 162 28 34 16 92 60 139 104 80 75 82 76 98 55 70 -91 90 -113 121 -135 60
-42 114 -58 199 -58 172 0 326 95 445 274 81 121 169 307 170 359 l1 42 -54
13 c-48 12 -55 12 -73 -5 -11 -10 -32 -40 -45 -68 -68 -133 -181 -267 -238
-281 -52 -13 -136 3 -164 31 -25 25 -26 30 -25 143 0 76 11 194 32 337 43 300
52 388 41 399 -5 6 -62 10 -126 10 -96 0 -125 -3 -153 -18 -59 -32 -89 -58
-99 -88 -13 -38 -40 -36 -97 7 -66 50 -93 63 -162 74 -135 22 -241 -16 -348
-125 -83 -83 -154 -212 -180 -329 -44 -194 -100 -306 -197 -391 -92 -81 -195
-81 -241 -1 -43 75 -42 90 38 569 119 709 119 704 71 799 -52 101 -171 159
-331 159 l-41 0 -27 -257 c-46 -439 -105 -976 -112 -1016 -11 -70 -151 -260
-217 -294 -36 -18 -126 -20 -154 -3 -28 18 -50 57 -62 112 -9 40 0 112 73 554
47 280 88 541 91 580 10 100 -11 162 -79 229 -60 60 -118 82 -240 91 l-81 7
-48 -459z m2202 -570 c119 -84 52 -424 -95 -480 -42 -16 -50 -16 -87 -3 -101
35 -125 190 -53 344 59 127 163 189 235 139z"/>
<path d="M7885 2932 c-51 -24 -99 -72 -127 -126 -28 -54 -30 -165 -4 -216 33
-63 63 -95 115 -123 143 -78 326 6 362 167 16 71 5 131 -34 197 -46 77 -108
113 -201 117 -53 2 -81 -2 -111 -16z"/>
</g>
</svg>
